<svg xmlns="http://www.w3.org/2000/svg" viewBox="0 0 512 512">
  <rect width="512" height="512" rx="96" fill="#f5f0e8"/>
  <circle cx="256" cy="280" r="140" fill="#5b8a72" opacity="0.15"/>
  <!-- Trunk -->
  <path d="M250 380 Q248 320 245 280 Q242 250 250 230" stroke="#8B7355" stroke-width="14" fill="none" stroke-linecap="round"/>
  <path d="M262 380 Q264 320 267 280 Q270 250 262 230" stroke="#8B7355" stroke-width="14" fill="none" stroke-linecap="round"/>
  <!-- Branches -->
  <line x1="247" y1="300" x2="200" y2="260" stroke="#8B7355" stroke-width="7" stroke-linecap="round"/>
  <line x1="265" y1="290" x2="312" y2="250" stroke="#8B7355" stroke-width="7" stroke-linecap="round"/>
  <!-- Foliage -->
  <circle cx="190" cy="245" r="35" fill="#5b8a72" opacity="0.7"/>
  <circle cx="320" cy="235" r="32" fill="#8fbc8f" opacity="0.7"/>
  <circle cx="200" cy="210" r="30" fill="#8fbc8f" opacity="0.6"/>
  <circle cx="310" cy="200" r="28" fill="#5b8a72" opacity="0.7"/>
  <circle cx="256" cy="195" r="40" fill="#5b8a72" opacity="0.65"/>
  <circle cx="230" cy="180" r="32" fill="#8fbc8f" opacity="0.6"/>
  <circle cx="280" cy="175" r="30" fill="#5b8a72" opacity="0.65"/>
  <circle cx="256" cy="165" r="28" fill="#8fbc8f" opacity="0.5"/>
  <!-- Ground -->
  <ellipse cx="256" cy="395" rx="80" ry="12" fill="#8fbc8f" opacity="0.3"/>
  <!-- Text -->
  <text x="256" y="460" text-anchor="middle" font-family="Arial, sans-serif" font-size="48" font-weight="bold" fill="#5b8a72">Wini</text>
</svg>
